<?xml version="1.0" encoding="utf-8"?>
<!-- Generator: Adobe Illustrator 25.1.0, SVG Export Plug-In . SVG Version: 6.00 Build 0)  -->
<svg version="1.1" id="Layer_1" xmlns="http://www.w3.org/2000/svg" xmlns:xlink="http://www.w3.org/1999/xlink" x="0px" y="0px"
	 viewBox="0 0 2273.63 1239.31" style="enable-background:new 0 0 2273.63 1239.31;" xml:space="preserve">
<style type="text/css">
	.st0{fill:#FFFFFF;}
</style>
<g fill="#caab40">
	<path d="M741.6,583.03c-25.35-13.5-53.01-19.07-81.02-23.14c-21.82-3.17-43.8-3.72-65.82-2.27c-25.35,1.67-50.17,6.15-74.5,13.45
		c-8.38,2.51-15.55,6.78-22.7,11.99c-6.82,4.96-15.57,7.12-22,13.37c-1.27,1.24-6.03,0.3-8.25-1.1
		c-6.99-4.39-13.53-9.49-21.29-15.06c3.47-2.99,6.33-5.54,9.29-7.99c98.58-81.68,180.05-177.75,241.75-290
		c16.32-29.69,30.01-60.9,43.71-91.94c12.09-27.41,17.55-56.64,16.93-86.6c-0.22-10.79-2.47-21.89-5.81-32.19
		c-5.13-15.84-14.36-21.14-31.1-20.77c-20.24,0.45-38.52,6.77-55.22,18.01c-27.56,18.56-51.64,40.87-72.91,66.39
		c-78.66,94.4-138.1,199.63-179.21,315.37c-15.71,44.24-31.27,88.54-42.84,134.05c-5.23,20.56-8.1,41.78-11.24,62.81
		c-8.99,60.24-17.48,120.55-26.42,180.79c-1.05,7.06-2.54,14.34-7.91,21.06c-8.58-5.86-16.79-11.4-24.92-17.06
		c-4.35-3.02-4.79-7.67-4.86-12.47c-0.36-24.37,1.37-48.54,5.61-72.59c8.68-49.2,20.14-97.73,32.43-146.14
		c6.61-26.04,10.11-52.91,14.33-79.52c5.53-34.84,10.29-69.8,15.54-104.69c6.84-45.42,13.77-90.83,20.82-136.21
		c4.65-29.92,10.22-59.72,14.26-89.72c4.48-33.31,7.69-66.79,11.45-100.19c0.21-1.9,0.49-3.8,0.84-6.54
		c10.08,3.96,17.33,10.86,25.05,16.89c1.52,1.19,1.93,4.78,1.67,7.14c-3.49,31.76-6.38,63.61-11.02,95.2
		c-9,61.24-19.04,122.34-28.59,183.5c-0.54,3.44-0.63,6.94-0.93,10.42c0.67,0.16,1.35,0.33,2.02,0.49
		c1.72-3.76,3.57-7.46,5.13-11.28c23.06-56.55,50.19-111.01,82.88-162.66c24.63-38.92,51.95-75.85,81.46-111.18
		c19.12-22.89,41.09-42.72,65.51-59.82c13.49-9.45,27.95-16.71,44.33-19.81c16.25-3.07,31.91-2.08,46.3,6.74
		c10.2,6.25,20.46,12.52,30.02,19.67c21.04,15.73,30.02,37.86,30.47,63.38c0.59,33.47-7.38,65.33-20.57,95.95
		c-51.8,120.29-125.19,225.63-219.36,316.59c-1.09,1.05-1.95,2.33-3.81,4.58c3.1,0.42,4.92,0.98,6.69,0.84
		c10.63-0.82,21.22-2.21,31.86-2.67c39.38-1.7,77.85,3.72,114.71,17.67c17.02,6.44,33.21,15.13,47,27.48L741.6,583.03z"/>
	<path d="M1201.63,407c5.5,0.93,11.05,2.87,16.5,2.62c33.61-1.53,67.19-3.57,100.78-5.41c14.64-0.8,29.27-1.63,43.92-2.25
		c37.95-1.61,75.9-3.08,113.85-4.67c8.99-0.38,17.97-0.96,26.94-1.55c7.78-0.51,9.88-2.48,12.74-10.24
		c3.57-9.65,7.39-19.22,11.28-28.75c0.99-2.44,2.47-4.73,4-6.9c3.63-5.18,6.37-6.09,11.73-2.55c7.49,4.94,14.65,10.41,21.66,16.02
		c3.71,2.96,3.96,7.47,3.4,11.96c-0.66,5.25-1.28,10.5-2.1,17.17c4.3,0.31,8.06,0.89,11.79,0.79c23.65-0.65,47.29-1.48,70.94-2.2
		c34.31-1.05,68.61-2.27,102.92-3.04c45.64-1.03,91.29-1.59,136.94-2.56c60.63-1.29,121.29-2.17,181.89-4.4
		c34.91-1.29,69.75-4.69,104.59-7.55c16.16-1.32,22.84-4.1,35.42-12.68c8.11,5.63,16.63,11.55,25.07,17.42
		c-1.99,6.2-6.4,7.73-10.31,8.72c-11.9,3-23.85,6.33-35.99,7.7c-18.85,2.12-37.84,3.14-56.81,3.89
		c-40.95,1.63-81.91,3.12-122.89,4.08c-49.3,1.15-98.63,1.31-147.93,2.57c-82.61,2.12-165.21,4.82-247.81,7.2
		c-13.66,0.39-27.32,0.41-40.98,0.6c-11.06,0.15-11.61,0.47-14.37,11.02c-11.82,45.16-26.72,89.25-45.52,131.99
		c-4.29,9.75-8.52,19.55-13.39,29c-6.78,13.16-11,27.08-14.04,41.46c-9.72,45.89-20.08,91.66-29.03,137.7
		c-11.82,60.75-23,121.62-33.61,182.59c-9.7,55.72-18.34,111.63-27.3,167.48c-3.16,19.71-5.89,39.5-8.86,59.24
		c-0.44,2.94-1.17,5.84-2.04,10.15c-9.03-5.4-17.24-10.75-24.67-17.08c-1.63-1.39-1.73-5.53-1.32-8.22
		c5.05-32.89,10.34-65.74,15.54-98.61c6.44-40.76,12.23-81.63,19.4-122.25c11.16-63.23,23.16-126.32,35-189.43
		c3.13-16.67,6.97-33.21,10.43-49.82c0.33-1.56,0.35-3.19,0.75-7.06c-2.87,2.88-4.47,4.14-5.62,5.71
		c-12.05,16.5-25.93,31.27-41.67,44.29c-2.31,1.91-4.65,3.8-7.15,5.44c-11.16,7.35-18.56,7.17-29.31-0.63
		c-6.2-4.5-12.41-8.99-18.52-13.61c-7.02-5.31-11-12.43-11.6-21.23c-3.06-45.45,4.45-88.9,24.89-129.85
		c1.9-3.8,4.21-7.38,6.78-11.85c8.32,5.88,15.99,11.03,23.27,16.67c1.31,1.01,1.74,4.19,1.35,6.12c-0.51,2.51-2.24,4.79-3.48,7.15
		c-18.59,35.54-26.85,73.58-27.36,113.46c-0.06,4.83,0.92,9.67,1.61,16.27c4.74-2.38,8.36-3.36,10.86-5.6
		c8.41-7.54,17.2-14.87,24.46-23.44c29.2-34.47,53.27-72.35,73.22-112.87c5.96-12.1,8.35-25.11,11.33-38.11
		c7.51-32.74,15.81-65.31,23.93-97.91c2.72-10.91,5.83-21.71,9.12-33.89c-4.51-0.65-7.95-1.71-11.33-1.55
		c-30.95,1.42-61.89,3.01-92.83,4.62c-28.28,1.47-56.56,2.94-84.83,4.57c-42.23,2.44-84.47,4.88-126.68,7.61
		c-37.56,2.43-75.11,4.98-112.62,8.05c-14.09,1.16-26.32-1.42-36.78-11.35c-3.56-3.38-7.89-5.94-12.96-9.68
		c3.22-1.68,5.32-2.94,7.55-3.91c21.57-9.33,44.84-12.36,67.43-17.79c15.49-3.73,31.44-5.48,47.03-8.87
		c21.26-4.63,37.61,3.45,51.72,18.37c-13.01,0.98-26.23,0.33-38.75,5.4c12-0.1,23.96-0.89,35.89-2.02
		C1200.01,410.59,1200.77,408.28,1201.63,407z"/>
	<path d="M1095.24,565.56c8.2,5.37,15.13,9.91,22.06,14.44c3.92,2.56,4.85,6.26,3.63,10.47c-0.83,2.86-2.21,5.56-3.4,8.31
		c-15.83,36.73-30.14,73.98-38.92,113.13c-0.54,2.4-0.71,4.89-1.05,7.33c0.64,0.32,1.28,0.65,1.92,0.97
		c2.21-2.67,4.64-5.19,6.6-8.03c23.83-34.55,47.44-69.26,71.44-103.69c10.09-14.47,20.71-28.59,31.59-42.47
		c4.06-5.17,9.35-9.46,14.45-13.7c4.96-4.12,10.44-3.91,15.65-0.13c6.2,4.5,12.36,9.05,18.47,13.68c6.61,5.01,8.27,12.08,6.88,19.67
		c-2.47,13.4-4.97,26.85-8.47,40c-6.08,22.82-12.95,45.43-19.42,68.15c-0.79,2.79-1.16,5.7-1.73,8.55c0.59,0.43,1.18,0.86,1.76,1.28
		c2.24-2.07,4.68-3.97,6.69-6.24c17.65-19.97,35.23-40,52.82-60.02c4.15-4.72,8.28-9.47,13.04-14.91
		c9.48,5.09,17.83,10.76,26.15,17.45c-1.04,1.85-1.63,3.38-2.62,4.57c-26.85,32.28-53.42,64.8-84.14,93.62
		c-14.89,13.97-16.1,14.16-32.77,2.23c-2.71-1.94-5.27-4.13-8.13-5.8c-9.55-5.56-11.92-13.68-9.03-23.9
		c7.35-25.93,14.65-51.88,22.03-77.8c2.64-9.28,5.52-18.5,8.14-27.78c0.83-2.93,1.17-5.99,1.73-8.99c-0.72-0.27-1.45-0.55-2.17-0.82
		c-2.17,2.75-4.5,5.4-6.5,8.27c-26.99,38.85-53.73,77.87-80.99,116.53c-8.61,12.21-18.48,23.54-27.92,35.16
		c-1.87,2.3-4.33,4.13-6.61,6.08c-4.3,3.69-8.82,4.28-13.64,0.89c-7.63-5.36-15.44-10.47-22.9-16.04c-5-3.73-6.38-9.49-5.5-15.28
		c2-13.13,4.17-26.26,7-39.23c2.1-9.66,5.35-19.07,6.72-29.79c-2.86,2.37-5.9,4.54-8.55,7.13c-15.34,15.01-32.32,27.81-51.22,37.97
		c-5.24,2.82-10.81,5.21-16.48,7.02c-10.59,3.37-21.13,2.98-30.78-3.07c-9.58-6.01-19.15-12.09-28.22-18.81
		c-8.96-6.64-12.05-16.78-12.41-27.31c-0.28-8.22,0.35-16.74,2.25-24.72c6.55-27.58,20.29-51.21,41.01-70.71
		c7.7-7.25,16.53-12.13,27.04-14.1c7.36-1.37,13.89,0.15,19.88,4.33c6.83,4.76,13.48,9.78,20.31,14.53
		c8.36,5.81,10.95,13.61,9.21,23.49c-1.96,11.09-7.69,19.68-16.13,26.78c-19.08,16.05-40.44,28.04-64.07,36
		c-10.7,3.61-11.97,5.17-12.54,16.28c-0.22,4.3-0.29,8.72,0.48,12.92c1.18,6.52,4.27,8.79,10.67,6.85
		c8.21-2.49,16.57-5.31,23.97-9.55c28.31-16.2,52.72-37.41,74.25-61.72c14.12-15.94,26.99-32.98,40.42-49.53
		C1089.68,572.46,1092.14,569.4,1095.24,565.56z M953.27,625.5c24.8-10.36,48.65-30.38,46.88-47.79
		C978.74,587.26,963.62,602.5,953.27,625.5z"/>
	<path d="M741.37,583.26c50.46,29.86,79.91,72.18,78.68,132.67c-0.39,19.22-4.75,37.56-12.23,55.23
		c-13.7,32.4-31.35,62.46-53.39,89.89c-70.3,87.49-155.09,157.06-255.71,207.23c-39.35,19.62-80.55,33.27-123.99,39.72
		c-42.84,6.36-83.71-0.65-121.69-21.62c-67.5-37.28-106.41-94.83-119.22-170.44c-6.22-36.7-7.14-73.55-1.67-110.39
		c1.4-9.44,4.89-18.58,7.59-27.81c0.43-1.46,1.76-2.66,3.13-4.63c8.76,6,17.18,11.76,25.11,17.19c-3.1,11.79-6.69,22.54-8.69,33.58
		c-5.33,29.4-4.73,59.05-1.48,88.6c3.3,29.92,9.78,59.23,23.1,86.39c7.59,15.47,16.75,30.24,25.97,44.84
		c16.2,25.64,40.97,37.98,69.92,43.58c42.7,8.26,84.07,2.19,125-10.6c47.02-14.69,90.71-36.07,132.36-62.34
		c79.82-50.35,148.26-112.81,204.91-188.23c20.79-27.67,37.15-57.69,47.12-90.86c16.27-54.13,5.43-101.91-34.94-142.3
		c-3.26-3.26-6.44-6.62-9.66-9.93C741.6,583.03,741.37,583.26,741.37,583.26z"/>
	<path d="M2022.93,640.3c-44.12,3.82-85.03,18.51-124.31,37.84c-30.15,14.84-59.73,30.85-89.26,46.9
		c-8.22,4.47-14.44,4.75-21.49-1.9c-5.23-4.93-11.7-8.53-18.44-13.31c2.41-3.87,4.07-7.49,6.57-10.37
		c6.76-7.79,13.69-15.46,20.9-22.84c26.56-27.16,52.94-54.49,76.28-84.52c8.56-11.02,16.15-22.81,24.01-34.36
		c1.97-2.89,3.27-6.24,5.12-9.85c-20.08,0.23-64.98,22.47-88.1,43.07c-6.87-1.97-21.39-11.74-26.94-18.33
		c1.39-1.6,2.65-3.51,4.34-4.92c26.72-22.28,57.76-35.22,91.58-41.98c8.53-1.7,16.45-0.04,23.52,5.52
		c5.75,4.53,12.07,8.33,17.79,12.89c7.43,5.92,9.49,11.66,5.61,20.24c-4.35,9.63-9.1,19.46-15.62,27.66
		c-18.64,23.44-38.27,46.1-57.5,69.08c-1.36,1.62-2.58,3.35-2.93,6.32c2.88-1.29,5.83-2.47,8.64-3.9
		c31.28-15.84,63.79-28.54,97.93-36.58c11.58-2.73,23.66-3.44,35.53-4.84c1.83-0.22,4.09,0.36,5.65,1.35
		c7.47,4.78,14.76,9.82,22.12,14.78C2023.61,638.93,2023.27,639.62,2022.93,640.3z"/>
	<path d="M1592.06,669.7c-4.18,13.6-6.53,26.85-5.15,42.12c4.16-0.91,7.76-1.07,10.8-2.45c13.32-6.04,26.81-11.83,39.64-18.81
		c32.48-17.67,64.25-36.55,94.04-58.57c2.41-1.78,4.84-3.73,7.58-4.78c2.22-0.86,5.55-1.53,7.28-0.47
		c7.28,4.45,14.15,9.58,22.18,15.16c-6.35,5.05-11.3,9.49-16.73,13.24c-36.45,25.19-73.76,48.97-113.93,67.96
		c-31.57,14.92-39.57,14.06-66.85-7.95c-7.55-6.09-10.42-14.38-11.12-23.67c-1.63-21.74,2.13-42.67,11.74-62.07
		c6.76-13.65,14.99-26.65,23.49-39.33c7.16-10.68,17.65-17.96,29.16-23.71c8.58-4.29,16.66-3.67,24.46,1.84
		c6.52,4.61,13.08,9.16,19.59,13.79c6.15,4.38,9.21,10.3,8.9,17.93c-0.54,13.25-5.68,24.58-14.7,34.07
		c-16.73,17.61-36.44,29.93-61.01,33.29c-1.98,0.27-3.93,0.74-5.87,1.2C1594.61,668.7,1593.7,669.12,1592.06,669.7z M1604.98,635.43
		c20.66-5.47,42.62-31.06,41.02-47.18C1627.75,599.8,1614.48,614.81,1604.98,635.43z"/>
	<path d="M1412.67,493.3c0,10.73,0.16,19.6-0.08,28.47c-0.1,3.79-3.09,4.7-6.4,4.69c-6.99-0.01-13.99,0.36-20.95-0.08
		c-9.51-0.6-18.99-1.8-28.89-2.79c0-10.79,0-20.65,0-31.67C1374.73,490.51,1392.65,494.78,1412.67,493.3z"/>
	<path class="st0" d="M1201.63,407c-0.86,1.28-1.62,3.59-2.59,3.68c-11.93,1.12-23.88,1.92-35.89,2.02
		c12.53-5.06,25.74-4.42,38.75-5.4C1201.92,407.3,1201.63,407,1201.63,407z"/>
	<path class="st0" d="M953.27,625.5c10.35-22.99,25.47-38.23,46.88-47.79C1001.91,595.11,978.06,615.14,953.27,625.5z"/>
	<path class="st0" d="M1604.98,635.43c9.5-20.62,22.77-35.62,41.02-47.18C1647.6,604.36,1625.64,629.96,1604.98,635.43z"/>
</g>
</svg>
