<svg id="Layer_1" enable-background="new 0 0 70 70" height="512" viewBox="0 0 70 70" width="512" xmlns="http://www.w3.org/2000/svg"><path d="m49.7319336 61.1767578c1.0776367.784668 2.347168 1.1958008 3.6523438 1.1958008.3242188 0 .6508789-.0253906.9770508-.0766602 3.3901367-.5332031 5.7143555-3.7250977 5.1816406-7.1152344-.5332031-3.390625-3.7314453-5.715332-7.1152344-5.1816406-1.6401367.2578125-3.0830078 1.140625-4.0625 2.4858398s-1.3769531 2.9892578-1.1191406 4.6293945 1.140625 3.0830079 2.4858398 4.0625001zm3.0063476-9.2021484c.2211914-.034668.440918-.0517578.6582031-.0517578 2.0424805 0 3.84375 1.4892578 4.1708984 3.5683594.3613281 2.3007812-1.2158203 4.4667969-3.5166016 4.8291016-2.3027344.359375-4.4677734-1.2163086-4.8291016-3.5166016-.3618162-2.3012696 1.2158205-4.4672852 3.5166017-4.8291016z"/><path d="m4.9091797 54.3115234c-1.0131836 6.4536133 3.4067383 12.5292969 9.8535156 13.5439453.6054688.0952148 1.2104492.1416016 1.8125.1416016 4.2026367 0 8.2006836-2.2661133 10.3383789-6.0214844l8.0840454-15.5198975 7.7924194 14.9471436.3193359.6147461c2.1176758 3.7158203 6.1098633 5.9741211 10.3105469 5.9741211.6020508 0 1.2089844-.0463867 1.8144531-.1416016 6.4487305-1.0141602 10.8701172-7.0859375 9.8564453-13.534668-1.0141602-6.4482422-7.0878906-10.8696289-13.5341797-9.8564453-2.1723633.3417969-4.1538086 1.2548828-5.8017578 2.6630859l-5.5424194-10.652832 12.4296265-23.8540039c1.6020508-3.0805664.7900391-6.8647461-1.9262695-8.9936523l-1.7666016-1.4013672c-.2333984-.1855469-.5395508-.2553711-.8300781-.1948242-.2919922.0625-.5410156.2519531-.6787109.5166016l-12.4388428 23.9117432-12.4425049-23.9151612c-.1381836-.2651367-.387207-.4545898-.6796875-.5166016-.2905273-.0610352-.5966797.0097656-.8305664.1958008l-1.7573242 1.3999023c-2.7265625 2.1298828-3.5415039 5.9125977-1.9375 8.9946289l12.4343262 23.8510742-5.545166 10.6635742c-1.6518555-1.4013672-3.6689453-2.3354492-5.8017578-2.6689453-6.4501954-1.0151366-12.5170899 3.4052735-13.5322266 9.8535157zm41.3071289-4.8642578c1.5102539-1.6264648 3.4643555-2.668457 5.6508789-3.0126953 5.3583984-.8398438 10.4047852 2.8325195 11.2480469 8.1914062.8422852 5.359375-2.8325195 10.4057617-8.1914062 11.2485352-4.0151367.6298828-8.0649414-1.3168945-10.0581055-4.8120117l-5.9800415-11.4718628 4.4866333-2.7144775 1.223877 2.352356c.1503906.2885742.4311523.4858398.753418.5297852.3193358.0400389.6450194-.0722657.8666991-.3110353zm2.4394531-44.9072265.8212891.6518555c1.9638672 1.5395508 2.5488281 4.2734375 1.3911133 6.5l-11.7822876 22.6119994-2.9569702-5.6834106zm-28.1254883.6479492.8149414-.6494141 21.1022339 40.5599365-4.4879761 2.715271-18.831543-36.1257935c-1.1591796-2.2260741-.5722655-4.9575194 1.4023438-6.4999999zm13.3392334 39.1037597-1.8345337 3.5195923-4.4840088-2.7128906 3.3656006-6.4709473zm-15.7376709 2.1418458c2.1782227.3408203 4.1328125 1.3833008 5.6518555 3.0151367.2211914.2373047.5405273.3496094.8662109.3095703.3217773-.0439453.6020508-.2407227.7524414-.5288086l1.223938-2.3532715 4.4824829 2.7119751-5.6820068 10.901062-.2729492.5366211c-2.0126953 3.534668-6.0585938 5.4848633-10.0805664 4.8540039-5.3574219-.8432617-9.0307617-5.8935547-8.1884766-11.2578125.8432617-5.3579101 5.8867188-9.0336914 11.2470703-8.1884765z"/><path d="m15.637207 62.2958984c.3261719.0512695.6499023.0761719.9702148.0761719 3.0087891 0 5.6630859-2.1938477 6.1450195-5.2578125.5332031-3.390625-1.7915039-6.5825195-5.1816406-7.1152344-3.3925781-.5351562-6.5830078 1.7915039-7.1152344 5.1816406-.5336913 3.3896485 1.7910157 6.5820313 5.1816407 7.1152344zm-3.2060547-6.8046875c.3618164-2.3007812 2.5288086-3.8774414 4.8291016-3.5166016 2.3007812.3618164 3.878418 2.527832 3.5166016 4.8291016-.3618164 2.3007812-2.5263672 3.8793945-4.8291016 3.5166016-2.3007812-.3623047-3.878418-2.5283203-3.5166016-4.8291016z"/><path d="m35.7099609 35.8598633c-.3803711-.3798828-1.050293-.3798828-1.4199219 0-.1801757.1801758-.290039.4399414-.290039.7001953 0 .2695312.1098633.5195312.2900391.7099609.1899414.1899414.449707.2900391.7099609.2900391.2597656 0 .5200195-.1000977.7099609-.2900391.0400391-.050293.0800781-.1000977.1196289-.1503906.0400391-.0595703.0703125-.1196289.0903321-.1796875.0297852-.0600586.0498047-.1201172.0600586-.1801758.0097656-.0698242.0200195-.1298828.0200195-.199707 0-.2602539-.1103516-.5200195-.2900391-.7001953z"/></svg>